<?xml version="1.0" encoding="utf-8"?>
<!-- Generator: Adobe Illustrator 19.0.0, SVG Export Plug-In . SVG Version: 6.00 Build 0)  -->
<svg version="1.1" id="Capa_1" xmlns="http://www.w3.org/2000/svg" xmlns:xlink="http://www.w3.org/1999/xlink" x="0px" y="0px"
	 viewBox="-255 347 100 100" style="enable-background:new -255 347 100 100;" xml:space="preserve">
<style type="text/css">
	.st0{fill:#383838;}
</style>
<g id="Add">
	<path class="st0" d="M-178.5,361.6l-26.5,26.5l-26.5-26.5c-2.4-2.4-6.4-2.4-8.8,0c-2.4,2.4-2.4,6.4,0,8.8l26.5,26.5l-26.5,26.5
		c-2.4,2.4-2.4,6.4,0,8.8c2.4,2.4,6.4,2.4,8.8,0l26.5-26.5l26.5,26.5c2.4,2.4,6.4,2.4,8.8,0c2.4-2.4,2.4-6.4,0-8.8l-26.5-26.5
		l26.5-26.5c2.4-2.4,2.4-6.4,0-8.8C-172.1,359.2-176,359.2-178.5,361.6z"/>
</g>
</svg>
