<?xml version="1.0" encoding="utf-8"?>
<!-- Generator: Adobe Illustrator 16.0.0, SVG Export Plug-In . SVG Version: 6.00 Build 0)  -->
<!DOCTYPE svg PUBLIC "-//W3C//DTD SVG 1.1//EN" "http://www.w3.org/Graphics/SVG/1.1/DTD/svg11.dtd">
<svg version="1.1" id="Capa_1" xmlns="http://www.w3.org/2000/svg" xmlns:xlink="http://www.w3.org/1999/xlink" x="0px" y="0px"
	 width="100px" height="100px" viewBox="0 0 100 100" enable-background="new 0 0 100 100" xml:space="preserve">
<g id="Add">
	<path fill="#383838" d="M93.75,43.75h-37.5V6.25C56.25,2.798,53.451,0,50,0c-3.452,0-6.25,2.798-6.25,6.25v37.5H6.25
		C2.799,43.75,0,46.548,0,50s2.799,6.25,6.25,6.25h37.5v37.499c0,3.452,2.798,6.25,6.25,6.25c3.451,0,6.25-2.798,6.25-6.25V56.25
		h37.5c3.451,0,6.25-2.799,6.25-6.25C100,46.548,97.201,43.75,93.75,43.75z"/>
</g>
</svg>
