<?xml version="1.0" encoding="utf-8"?>
<!-- Generator: Adobe Illustrator 19.1.0, SVG Export Plug-In . SVG Version: 6.00 Build 0)  -->
<svg version="1.1" id="Layer_1" xmlns="http://www.w3.org/2000/svg" xmlns:xlink="http://www.w3.org/1999/xlink" x="0px" y="0px"
	 viewBox="0 0 97.7 97.7" style="enable-background:new 0 0 97.7 97.7;" xml:space="preserve">
<style type="text/css">
	.st0{fill:#F7C115;}
	.st1{fill:#383938;}
</style>
<g>
	<circle class="st0" cx="49" cy="49.7" r="47"/>
	<g>
		<path class="st1" d="M69.7,70.2c-2,2-5.3,2-7.3,0L28.4,36.5c-2-2-2-5.3,0-7.3l0,0c2-2,5.3-2,7.3,0l34.1,33.8
			C71.7,64.9,71.7,68.2,69.7,70.2L69.7,70.2z"/>
		<path class="st1" d="M28.5,70.4c-2-2-2-5.3,0-7.3l33.8-34.1c2-2,5.3-2,7.3,0l0,0c2,2,2,5.3,0,7.3L35.8,70.4
			C33.8,72.4,30.5,72.4,28.5,70.4L28.5,70.4z"/>
	</g>
</g>
</svg>
