<?xml version="1.0" encoding="utf-8"?>
<!-- Generator: Adobe Illustrator 16.0.0, SVG Export Plug-In . SVG Version: 6.00 Build 0)  -->
<!DOCTYPE svg PUBLIC "-//W3C//DTD SVG 1.1//EN" "http://www.w3.org/Graphics/SVG/1.1/DTD/svg11.dtd">
<svg version="1.1" id="Capa_1" xmlns="http://www.w3.org/2000/svg" xmlns:xlink="http://www.w3.org/1999/xlink" x="0px" y="0px"
	 width="114.5px" height="17.64px" viewBox="212.539 226.475 114.5 17.64" enable-background="new 212.539 226.475 114.5 17.64"
	 xml:space="preserve">
<g>
	<g>
		<path fill="#F9C100" d="M234.519,237.683c-0.17-0.17-0.379-0.256-0.623-0.256h-4.249l-1.245,1.244
			c-0.354,0.342-0.77,0.514-1.246,0.514s-0.891-0.171-1.246-0.514l-1.236-1.244h-4.257c-0.245,0-0.452,0.086-0.623,0.256
			c-0.171,0.171-0.256,0.379-0.256,0.623v2.93c0,0.245,0.085,0.452,0.256,0.623s0.378,0.256,0.623,0.256h13.478
			c0.244,0,0.452-0.085,0.623-0.256c0.171-0.171,0.256-0.378,0.256-0.623v-2.93C234.775,238.062,234.69,237.854,234.519,237.683z
			 M231.085,240.769c-0.117,0.116-0.253,0.174-0.413,0.174c-0.159,0-0.295-0.058-0.412-0.174c-0.116-0.116-0.174-0.253-0.174-0.412
			c0-0.158,0.058-0.297,0.174-0.412c0.117-0.115,0.253-0.174,0.412-0.174c0.159,0,0.296,0.059,0.413,0.174
			c0.116,0.115,0.174,0.254,0.174,0.412C231.259,240.516,231.201,240.653,231.085,240.769z M233.429,240.769
			c-0.116,0.116-0.253,0.174-0.413,0.174c-0.158,0-0.295-0.058-0.412-0.174s-0.174-0.253-0.174-0.412
			c0-0.158,0.058-0.297,0.174-0.412s0.253-0.174,0.412-0.174c0.159,0,0.296,0.059,0.413,0.174s0.174,0.254,0.174,0.412
			C233.603,240.516,233.545,240.653,233.429,240.769z"/>
		<path fill="#F9C100" d="M226.745,237.839c0.11,0.115,0.248,0.174,0.413,0.174c0.165,0,0.302-0.059,0.412-0.174l4.102-4.103
			c0.189-0.177,0.232-0.39,0.128-0.641c-0.104-0.238-0.284-0.357-0.54-0.357h-2.344v-4.102c0-0.159-0.058-0.296-0.174-0.412
			c-0.116-0.116-0.253-0.174-0.412-0.174h-2.344c-0.159,0-0.296,0.058-0.412,0.174c-0.116,0.116-0.174,0.253-0.174,0.412v4.102
			h-2.344c-0.256,0-0.436,0.119-0.54,0.357c-0.104,0.25-0.061,0.464,0.128,0.641L226.745,237.839z"/>
	</g>
</g>
<g>
	<rect x="240.039" y="228.615" fill="none" width="330" height="33"/>
	<path fill="#F9C100" d="M249.87,241.017c-0.559,0.287-1.729,0.576-3.205,0.576c-3.421,0-5.978-2.161-5.978-6.159
		c0-3.817,2.574-6.374,6.338-6.374c1.494,0,2.467,0.324,2.881,0.54l-0.396,1.278c-0.576-0.288-1.422-0.504-2.431-0.504
		c-2.845,0-4.735,1.818-4.735,5.005c0,2.989,1.711,4.879,4.646,4.879c0.972,0,1.944-0.198,2.574-0.505L249.87,241.017z"/>
	<path fill="#F9C100" d="M259.482,236.965c0,3.223-2.251,4.628-4.34,4.628c-2.341,0-4.177-1.729-4.177-4.484
		c0-2.899,1.926-4.609,4.321-4.609C257.789,232.5,259.482,234.318,259.482,236.965z M252.586,237.055
		c0,1.909,1.08,3.349,2.629,3.349c1.513,0,2.646-1.422,2.646-3.385c0-1.476-0.738-3.331-2.61-3.331
		C253.396,233.688,252.586,235.417,252.586,237.055z"/>
	<path fill="#F9C100" d="M261.477,235.039c0-0.918-0.018-1.639-0.072-2.358h1.404l0.09,1.44h0.036
		c0.433-0.811,1.44-1.621,2.881-1.621c1.207,0,3.079,0.72,3.079,3.709v5.185h-1.584v-5.023c0-1.404-0.522-2.575-2.017-2.575
		c-1.026,0-1.837,0.738-2.125,1.62c-0.072,0.198-0.108,0.468-0.108,0.738v5.239h-1.584V235.039z"/>
	<path fill="#F9C100" d="M278.975,228.611v10.533c0,0.773,0.036,1.656,0.072,2.25h-1.404l-0.072-1.512h-0.054
		c-0.468,0.973-1.513,1.711-2.935,1.711c-2.107,0-3.745-1.783-3.745-4.43c-0.019-2.899,1.8-4.663,3.907-4.663
		c1.35,0,2.232,0.63,2.628,1.314h0.036v-5.204H278.975z M277.408,236.227c0-0.198-0.018-0.468-0.071-0.666
		c-0.234-0.991-1.099-1.819-2.287-1.819c-1.639,0-2.61,1.44-2.61,3.349c0,1.765,0.882,3.223,2.574,3.223
		c1.063,0,2.035-0.72,2.323-1.891c0.054-0.216,0.071-0.432,0.071-0.684V236.227z"/>
	<path fill="#F9C100" d="M289.506,236.965c0,3.223-2.251,4.628-4.34,4.628c-2.341,0-4.177-1.729-4.177-4.484
		c0-2.899,1.926-4.609,4.321-4.609C287.813,232.5,289.506,234.318,289.506,236.965z M282.609,237.055
		c0,1.909,1.08,3.349,2.629,3.349c1.513,0,2.646-1.422,2.646-3.385c0-1.476-0.738-3.331-2.61-3.331
		C283.42,233.688,282.609,235.417,282.609,237.055z"/>
	<path fill="#F9C100" d="M295.316,228.611h1.584v12.783h-1.584V228.611z"/>
	<path fill="#F9C100" d="M301.329,230.231c0,0.541-0.378,0.973-1.009,0.973c-0.576,0-0.954-0.432-0.954-0.973
		c0-0.54,0.396-0.99,0.99-0.99C300.933,229.241,301.329,229.673,301.329,230.231z M299.564,241.394v-8.714h1.584v8.714H299.564z"/>
	<path fill="#F9C100" d="M303.562,239.792c0.485,0.287,1.314,0.611,2.106,0.611c1.134,0,1.675-0.558,1.675-1.296
		c0-0.757-0.45-1.152-1.603-1.584c-1.585-0.576-2.323-1.422-2.323-2.467c0-1.404,1.152-2.557,3.007-2.557
		c0.883,0,1.656,0.234,2.125,0.54l-0.378,1.152c-0.343-0.216-0.973-0.522-1.783-0.522c-0.936,0-1.44,0.54-1.44,1.188
		c0,0.72,0.505,1.044,1.639,1.495c1.494,0.558,2.287,1.314,2.287,2.611c0,1.548-1.207,2.629-3.241,2.629
		c-0.954,0-1.837-0.253-2.448-0.613L303.562,239.792z"/>
	<path fill="#F9C100" d="M312.813,230.591v2.089h2.269v1.206h-2.269v4.699c0,1.08,0.307,1.693,1.188,1.693
		c0.433,0,0.685-0.037,0.919-0.108l0.071,1.206c-0.306,0.107-0.792,0.217-1.404,0.217c-0.738,0-1.332-0.253-1.71-0.667
		c-0.433-0.485-0.612-1.261-0.612-2.286v-4.754h-1.351v-1.206h1.351v-1.621L312.813,230.591z"/>
</g>
</svg>
