<?xml version="1.0" encoding="utf-8"?>
<!-- Generator: Adobe Illustrator 16.0.0, SVG Export Plug-In . SVG Version: 6.00 Build 0)  -->
<!DOCTYPE svg PUBLIC "-//W3C//DTD SVG 1.1//EN" "http://www.w3.org/Graphics/SVG/1.1/DTD/svg11.dtd">
<svg version="1.1" id="Capa_1" xmlns="http://www.w3.org/2000/svg" xmlns:xlink="http://www.w3.org/1999/xlink" x="0px" y="0px"
	 width="500px" height="500px" viewBox="0 0 500 500" enable-background="new 0 0 500 500" xml:space="preserve">
<g>
	<g>
		<path fill="#F7C115" d="M0,480.555C0,492.014,7.986,500,19.445,500h145.486c11.458,0,20.833-9.375,20.833-20.833
			c0-11.459-9.375-20.834-20.833-20.834h-95.14l118.75-118.055c7.987-7.987,7.987-20.833,0-29.167
			c-7.986-7.986-20.486-7.986-28.82,0L41.667,429.861V328.125c0-11.459-9.375-20.834-20.833-20.834
			C9.375,307.291,0,316.666,0,328.125V480.555z"/>
		<path fill="#F7C115" d="M309.375,479.167c0,11.458,9.375,20.833,20.833,20.833h150c11.459,0,19.445-7.986,19.445-19.445V332.986
			c0-11.458-9.375-20.833-20.833-20.833c-11.459,0-20.834,9.375-20.834,20.833v92.361L344.792,311.459
			c-7.987-7.987-20.834-7.987-29.167,0c-7.986,7.986-7.986,20.486,0,28.819l118.75,118.055H329.514
			C318.75,458.333,309.375,467.708,309.375,479.167z"/>
		<path fill="#F7C115" d="M194.445,20.833C194.445,9.375,185.07,0,173.611,0H19.445C7.986,0,0,7.986,0,19.445v148.958
			c0,11.458,9.375,20.833,20.833,20.833c11.458,0,20.833-9.375,20.833-20.833V64.93l118.055,118.75
			c4.167,4.167,9.028,6.25,14.237,6.25c5.208,0,10.417-2.083,14.583-6.25c7.987-7.986,7.987-20.486,0-28.82L74.653,41.667h98.958
			C185.417,41.667,194.445,32.292,194.445,20.833z"/>
		<path fill="#F7C115" d="M316.32,183.68c4.166,4.167,9.375,6.25,14.583,6.25s10.069-2.083,13.889-6.25L458.333,69.792v98.612
			c0,11.458,9.375,20.833,20.834,20.833c11.458,0,20.833-9.375,20.833-20.833V19.445C500,7.986,492.014,0,480.555,0H339.236
			c-11.458,0-20.833,9.375-20.833,20.833c0,11.458,9.375,20.833,20.833,20.833h91.32l-113.89,113.195
			C308.333,162.847,308.333,175.347,316.32,183.68z"/>
	</g>
</g>
</svg>
