<?xml version="1.0" encoding="utf-8"?>
<!-- Generator: Adobe Illustrator 16.0.0, SVG Export Plug-In . SVG Version: 6.00 Build 0)  -->
<!DOCTYPE svg PUBLIC "-//W3C//DTD SVG 1.1//EN" "http://www.w3.org/Graphics/SVG/1.1/DTD/svg11.dtd">
<svg version="1.1" id="Layer_1" xmlns="http://www.w3.org/2000/svg" xmlns:xlink="http://www.w3.org/1999/xlink" x="0px" y="0px"
	 width="180px" height="132.387px" viewBox="0 0 180 132.387" enable-background="new 0 0 180 132.387" xml:space="preserve">
<g>
	<path fill="#EFB81D" d="M84.59,32.525l0.688,1.195l1.194-0.69l8.143-4.697c0.889-0.515,1.478-1.321,1.705-2.336
		c0.213-0.971,0.067-1.931-0.419-2.78L86.202,6.408c-0.488-0.848-1.246-1.455-2.197-1.756c-0.99-0.311-1.981-0.207-2.873,0.306
		l-8.145,4.699l-1.192,0.689l0.69,1.194L84.59,32.525z"/>
	<path fill="#EFB81D" d="M99.199,0.692c0.063,0.111,0.132,0.219,0.195,0.33l7.774,13.467c2.456,4.26,3.323,8.029,2.576,11.202
		c-0.735,3.142-3.116,5.889-7.067,8.169l-11.798,6.807l-1.194,0.688l0.688,1.193l14.615,25.332l-10.043,5.791l0,0l-10.496,6.056
		l-4.478-7.763l8.307-4.789l-3.507-6.08l-8.307,4.79l-4.478-7.761l8.308-4.789L58.062,14.801c-5.909,7.17-9.459,16.356-9.459,26.375
		c0,22.914,18.574,41.489,41.49,41.489c22.909,0,41.488-18.575,41.488-41.489C131.58,21.388,117.728,4.843,99.199,0.692z"/>
</g>
<g>
	<path fill="#EFB81D" d="M25.95,107.44c0,1.493-0.2,2.813-0.603,3.956c-0.401,1.145-1.034,2.11-1.896,2.893
		c-0.864,0.784-1.977,1.373-3.335,1.771c-1.362,0.398-3.001,0.6-4.919,0.6H4.105v11.477H1.858V98.266h13.34
		c1.917,0,3.557,0.201,4.919,0.598c1.359,0.398,2.472,0.982,3.335,1.749c0.862,0.771,1.494,1.726,1.896,2.87
		C25.751,104.631,25.95,105.949,25.95,107.44z M23.648,107.44c0-1.421-0.194-2.566-0.583-3.435c-0.389-0.869-0.99-1.541-1.799-2.012
		c-0.81-0.471-1.836-0.787-3.078-0.946c-1.241-0.159-2.716-0.237-4.419-0.237H4.107v13.304h9.662c0.661,0,1.366,0.004,2.116,0.013
		c0.749,0.006,1.489-0.036,2.222-0.133c0.73-0.093,1.43-0.258,2.097-0.497c0.666-0.24,1.254-0.607,1.763-1.1
		c0.512-0.495,0.919-1.137,1.226-1.933C23.497,109.666,23.648,108.658,23.648,107.44z"/>
	<path fill="#EFB81D" d="M61.207,113.225c0,2.681-0.402,4.995-1.205,6.943c-0.802,1.952-1.904,3.562-3.305,4.827
		c-1.403,1.27-3.056,2.208-4.96,2.816c-1.904,0.61-3.96,0.915-6.163,0.915c-2.216,0-4.284-0.305-6.202-0.915
		c-1.916-0.608-3.581-1.547-4.995-2.816c-1.413-1.266-2.521-2.875-3.324-4.827c-0.802-1.948-1.204-4.263-1.204-6.943
		c0-1.783,0.186-3.403,0.558-4.859c0.371-1.456,0.893-2.761,1.564-3.914c0.671-1.151,1.482-2.147,2.435-2.989
		c0.952-0.84,2.013-1.54,3.182-2.098c1.167-0.558,2.422-0.972,3.762-1.24c1.342-0.268,2.75-0.401,4.225-0.401
		c2.203,0,4.259,0.305,6.163,0.911c1.904,0.61,3.557,1.547,4.96,2.819c1.401,1.267,2.503,2.876,3.305,4.826
		C60.805,108.228,61.207,110.543,61.207,113.225z M58.904,113.225c0-2.116-0.285-3.986-0.854-5.609
		c-0.57-1.624-1.414-2.99-2.529-4.098c-1.113-1.111-2.502-1.948-4.164-2.523c-1.662-0.57-3.591-0.857-5.785-0.857
		c-2.197,0-4.13,0.29-5.804,0.868c-1.672,0.579-3.074,1.425-4.2,2.533c-1.128,1.109-1.979,2.479-2.557,4.107
		c-0.576,1.631-0.865,3.49-0.865,5.579c0,2.117,0.289,3.984,0.865,5.606c0.578,1.626,1.429,2.991,2.557,4.1
		c1.125,1.109,2.527,1.95,4.2,2.525c1.674,0.569,3.607,0.855,5.804,0.855c2.193,0,4.122-0.286,5.785-0.855
		c1.661-0.573,3.05-1.416,4.164-2.525c1.115-1.108,1.959-2.474,2.529-4.1C58.619,117.209,58.904,115.342,58.904,113.225z"/>
	<path fill="#EFB81D" d="M89.197,107.44c0,1.493-0.202,2.813-0.605,3.956c-0.4,1.145-1.033,2.11-1.896,2.893
		c-0.862,0.784-1.976,1.373-3.335,1.771c-1.361,0.398-3,0.6-4.918,0.6H67.35v11.477h-2.248V98.266h13.34
		c1.917,0,3.557,0.201,4.917,0.598c1.36,0.398,2.474,0.982,3.336,1.749c0.863,0.771,1.496,1.726,1.896,2.87
		C88.995,104.631,89.197,105.949,89.197,107.44z M86.895,107.44c0-1.421-0.196-2.566-0.585-3.435
		c-0.389-0.869-0.989-1.541-1.801-2.012c-0.806-0.471-1.834-0.787-3.075-0.946c-1.241-0.159-2.713-0.237-4.419-0.237h-9.663v13.304
		h9.663c0.662,0,1.365,0.004,2.115,0.013c0.75,0.006,1.492-0.036,2.223-0.133c0.729-0.093,1.432-0.258,2.097-0.497
		c0.664-0.24,1.254-0.607,1.763-1.1c0.51-0.495,0.918-1.137,1.224-1.933C86.74,109.666,86.895,108.658,86.895,107.44z"/>
	<path fill="#EFB81D" d="M119.722,126.57c-1.006,0.381-1.941,0.703-2.804,0.97c-0.864,0.267-1.715,0.482-2.554,0.651
		c-0.841,0.167-1.693,0.294-2.563,0.372c-0.871,0.078-1.825,0.119-2.869,0.119c-2.421,0-4.609-0.354-6.564-1.068
		c-1.953-0.708-3.615-1.726-4.988-3.054c-1.373-1.325-2.43-2.931-3.173-4.815c-0.744-1.885-1.115-4-1.115-6.349
		c0-2.275,0.357-4.361,1.071-6.263c0.713-1.896,1.709-3.528,2.994-4.89c1.282-1.363,2.816-2.424,4.603-3.175
		c1.785-0.752,3.758-1.131,5.917-1.131c2.24,0,4.236,0.362,5.984,1.087c1.75,0.727,3.224,1.762,4.423,3.11
		c1.201,1.347,2.11,2.98,2.733,4.903c0.624,1.919,0.936,4.082,0.936,6.487v0.674H95.395c0.132,1.856,0.519,3.53,1.154,5.023
		c0.634,1.492,1.537,2.76,2.706,3.804c1.169,1.043,2.61,1.847,4.319,2.402c1.71,0.562,3.704,0.839,5.983,0.839
		c0.971,0,1.954-0.078,2.951-0.24c0.995-0.159,1.949-0.372,2.86-0.642c0.912-0.269,1.747-0.57,2.5-0.911
		c0.756-0.343,1.375-0.695,1.854-1.056V126.57L119.722,126.57z M119.542,111.832c-0.083-1.521-0.366-2.975-0.845-4.358
		c-0.479-1.385-1.198-2.607-2.152-3.663c-0.952-1.059-2.164-1.899-3.633-2.524c-1.469-0.622-3.231-0.933-5.282-0.933
		c-1.93,0-3.624,0.311-5.074,0.933c-1.451,0.625-2.682,1.462-3.688,2.512c-1.008,1.051-1.799,2.27-2.375,3.655
		c-0.577,1.383-0.944,2.843-1.099,4.379H119.542z"/>
	<path fill="#EFB81D" d="M139.119,100.745v27.395h-2.23v-27.395h-11.238v-2.479h24.705v2.479H139.119z"/>
	<path fill="#EFB81D" d="M180.324,117.224c0,1.958-0.378,3.65-1.133,5.077c-0.756,1.429-1.795,2.614-3.12,3.553
		c-1.322,0.942-2.885,1.642-4.692,2.103c-1.804,0.454-3.754,0.681-5.852,0.681c-2.277,0-4.368-0.175-6.274-0.529
		c-1.907-0.356-3.57-0.854-4.997-1.488v-3.155c0.765,0.393,1.555,0.754,2.371,1.088c0.813,0.334,1.683,0.624,2.605,0.879
		c0.922,0.258,1.906,0.45,2.955,0.59c1.049,0.136,2.185,0.204,3.404,0.204c1.726,0,3.341-0.199,4.85-0.601
		c1.511-0.395,2.825-0.973,3.943-1.737c1.122-0.76,2.007-1.698,2.66-2.813c0.655-1.114,0.98-2.398,0.98-3.85v-5.652
		c-0.574,0.942-1.28,1.846-2.112,2.707c-0.832,0.862-1.76,1.622-2.787,2.284c-1.024,0.659-2.133,1.189-3.332,1.588
		c-1.197,0.398-2.46,0.598-3.791,0.598c-1.51,0-2.848-0.17-4.015-0.512c-1.168-0.341-2.188-0.809-3.057-1.402
		c-0.867-0.595-1.602-1.301-2.201-2.119s-1.081-1.71-1.446-2.675c-0.365-0.963-0.628-1.975-0.792-3.034
		c-0.161-1.058-0.241-2.13-0.241-3.218v-7.522h2.3v6.928c0,1.667,0.165,3.178,0.495,4.54c0.328,1.358,0.869,2.525,1.624,3.495
		c0.752,0.971,1.744,1.72,2.97,2.248c1.227,0.529,2.746,0.794,4.553,0.794c1.398,0,2.685-0.229,3.859-0.686
		c1.172-0.454,2.242-1.071,3.211-1.844c0.97-0.776,1.85-1.67,2.641-2.682c0.789-1.013,1.496-2.077,2.117-3.192v-9.6h2.301v18.956
		H180.324z"/>
</g>
</svg>
